<?xml version="1.0" standalone="no"?>
<!DOCTYPE svg PUBLIC "-//W3C//DTD SVG 1.1//EN"
  "http://www.w3.org/Graphics/SVG/1.1/DTD/svg11.dtd">
<svg width="126.4900016784668mm" height="44.37999820709228mm" viewBox="-98.04000091552734 -11.189999580383299 126.4900016784668 44.37999820709228" xmlns="http://www.w3.org/2000/svg" version="1.1">
	<title>svgOutput</title>
	<desc>made with tinkercad</desc>
<path d="M -23.738000869750977 14.423000335693356 L -23.3799991607666 15.029999732971188 L -23.124000549316406 15.703000068664547 L -22.983198165893555 16.38400077819824 L -22.97100067138672 16.443000793457028 L -22.920000076293945 17.249999999999996 L -22.929000854492188 17.60400009155273 L -22.95800018310547 17.94599914550781 L -23.0049991607666 18.27499961853027 L -23.070999145507812 18.591999053955075 L -23.1560001373291 18.896999359130856 L -23.260000228881836 19.190000534057614 L -23.37299919128418 19.471000671386715 L -23.49799919128418 19.739000320434567 L -23.635000228881836 19.995000839233395 L -23.784000396728516 20.239000320434567 L -23.945999145507812 20.471000671386715 L -23.953149795532227 20.479999542236325 L -24.1200008392334 20.690000534057614 L -24.30299949645996 20.898000717163082 L -24.493000030517578 21.093999862670895 L -24.576000213623047 21.17236518859863 L -24.690000534057617 21.280000686645504 L -24.89299964904785 21.454000473022457 L -25.10300064086914 21.618000030517575 L -25.31999969482422 21.77000045776367 L -25.547000885009766 21.912000656127926 L -25.775999069213867 22.045999526977536 L -26.0049991607666 22.17000007629394 L -26.236000061035156 22.2859992980957 L -26.466999053955078 22.392000198364254 L -26.700000762939453 22.48999977111816 L -25.48806381225586 24.57600021362304 L -24.576000213623047 26.145854949951165 L -23.399999618530273 28.170000076293938 L -23.2810001373291 28.36599922180175 L -23.163999557495117 28.55200004577636 L -23.087146759033203 28.67200088500976 L -23.049999237060547 28.72999954223632 L -22.937999725341797 28.899000167846673 L -22.827999114990234 29.059000015258782 L -22.719999313354492 29.20999908447265 L -22.60700035095215 29.34600067138671 L -22.527999877929688 29.437099456787102 L -22.496000289916992 29.474000930786126 L -22.385000228881836 29.594999313354485 L -22.287574768066406 29.695999145507805 L -22.275999069213867 29.70800018310546 L -22.16699981689453 29.81299972534179 L -22.059999465942383 29.909999847412102 L -21.945999145507812 29.9990005493164 L -21.83099937438965 30.079000473022454 L -21.71500015258789 30.149999618530266 L -21.597999572753906 30.21199989318847 L -21.503999710083008 30.254655838012688 L -21.479000091552734 30.266000747680657 L -21.360000610351562 30.309999465942376 L -21.2450008392334 30.347000122070305 L -21.12700080871582 30.377000808715813 L -21.0049991607666 30.399999618530266 L -20.8799991607666 30.416999816894524 L -20.75200080871582 30.42700004577636 L -20.6200008392334 30.430000305175774 L -20.520000457763672 30.430000305175774 L -20.520000457763672 30.719999313354485 L -20.520000457763672 31.909999847412102 L -21.420000076293945 31.909999847412102 L -21.825000762939453 31.908000946044915 L -22.21299934387207 31.90099906921386 L -22.527999877929688 31.891685485839837 L -22.584999084472656 31.88999938964843 L -22.940000534057617 31.8740005493164 L -23.277999877929688 31.854000091552727 L -23.600000381469727 31.829999923706048 L -23.900999069213867 31.791999816894524 L -24.18899917602539 31.74300003051757 L -24.46500015258789 31.684999465942376 L -24.576000213623047 31.656408309936516 L -24.729000091552734 31.617000579833977 L -24.981000900268555 31.538000106811516 L -25.219999313354492 31.450000762939446 L -25.447999954223633 31.350999832153313 L -25.663999557495117 31.24099922180175 L -25.8700008392334 31.12000083923339 L -26.06399917602539 30.98800086975097 L -26.24799919128418 30.84399986267089 L -26.420000076293945 30.69000053405761 L -26.590999603271484 30.516000747680657 L -26.624000549316406 30.478849411010735 L -26.757999420166016 30.327999114990227 L -26.920000076293945 30.124999999999993 L -27.077999114990234 29.908000946044915 L -27.231000900268555 29.676000595092766 L -27.3799991607666 29.430000305175774 L -27.7862491607666 28.67200088500976 L -28.672000885009766 27.019317626953118 L -29.981491088867188 24.57600021362304 L -30.65999984741211 23.30999946594238 L -31.36467170715332 23.30999946594238 L -31.90926742553711 23.30999946594238 L -32.5 23.30999946594238 L -32.5 24.57600021362304 L -32.5 28.67200088500976 L -32.5 28.790000915527337 L -32.49700164794922 28.96400070190429 L -32.48899841308594 29.128000259399407 L -32.474998474121094 29.2800006866455 L -32.45600128173828 29.420999526977532 L -32.430999755859375 29.551000595092766 L -32.400001525878906 29.670000076293938 L -32.38939666748047 29.695999145507805 L -32.358001708984375 29.77300071716308 L -32.31100082397461 29.86800003051757 L -32.2599983215332 29.954999923706048 L -32.20399856567383 30.03400039672851 L -32.14400100708008 30.106000900268548 L -32.08000183105469 30.170000076293938 L -32.012001037597656 30.22100067138671 L -31.940000534057617 30.266000747680657 L -31.864999771118164 30.305000305175774 L -31.78700065612793 30.33900070190429 L -31.743999481201172 30.35368347167968 L -31.704999923706055 30.367000579833977 L -31.6200008392334 30.38999938964843 L -31.533000946044922 30.402000427246087 L -31.444000244140625 30.412000656127923 L -31.354999542236328 30.420000076293938 L -31.263999938964844 30.426000595092766 L -31.17300033569336 30.42900085449218 L -31.079999923706055 30.430000305175774 L -30.719999313354492 30.430000305175774 L -29.8799991607666 30.430000305175774 L -29.8799991607666 31.909999847412102 L -30.719999313354492 31.909999847412102 L -32.768001556396484 31.909999847412102 L -36.86399841308594 31.909999847412102 L -39.47999954223633 31.909999847412102 L -39.47999954223633 30.719999313354485 L -39.47999954223633 30.430000305175774 L -38.9119987487793 30.430000305175774 L -38.31999969482422 30.430000305175774 L -38.22700119018555 30.42900085449218 L -38.13600158691406 30.426000595092766 L -38.04499816894531 30.420000076293938 L -37.95600128173828 30.412000656127923 L -37.88800048828125 30.404359817504876 L -37.867000579833984 30.402000427246087 L -37.779998779296875 30.38999938964843 L -37.69499969482422 30.367000579833977 L -37.612998962402344 30.33900070190429 L -37.53499984741211 30.305000305175774 L -37.459999084472656 30.266000747680657 L -37.38800048828125 30.22100067138671 L -37.31999969482422 30.170000076293938 L -37.25600051879883 30.106000900268548 L -37.19599914550781 30.03400039672851 L -37.13999938964844 29.954999923706048 L -37.0890007019043 29.86800003051757 L -37.04199981689453 29.77300071716308 L -37.01060104370117 29.695999145507805 L -37 29.670000076293938 L -36.9630012512207 29.551000595092766 L -36.93299865722656 29.420999526977532 L -36.90999984741211 29.2800006866455 L -36.893001556396484 29.128000259399407 L -36.882999420166016 28.96400070190429 L -36.880001068115234 28.790000915527337 L -36.880001068115234 28.67200088500976 L -36.880001068115234 24.57600021362304 L -36.880001068115234 16.38400077819824 L -36.880001068115234 15.249999999999996 L -36.882999420166016 15.076000213623043 L -36.893001556396484 14.91199970245361 L -36.90999984741211 14.760000228881832 L -36.93299865722656 14.619000434875485 L -36.9630012512207 14.489000320434567 L -37 14.369999885559078 L -37.013221740722656 14.33600044250488 L -37.04199981689453 14.262000083923336 L -37.0890007019043 14.16300010681152 L -37.13999938964844 14.074999809265133 L -37.19599914550781 13.996999740600582 L -37.25600051879883 13.928000450134274 L -37.31999969482422 13.869999885559078 L -37.38800048828125 13.812999725341793 L -37.459999084472656 13.76299953460693 L -37.53499984741211 13.720000267028805 L -37.612998962402344 13.682999610900875 L -37.69499969482422 13.652999877929684 L -37.779998779296875 13.630000114440914 L -37.867000579833984 13.612000465393063 L -37.88800048828125 13.608460426330563 L -37.95600128173828 13.597000122070309 L -38.04499816894531 13.585000038146969 L -38.13600158691406 13.576999664306637 L -38.22700119018555 13.571999549865719 L -38.31999969482422 13.569999694824215 L -38.9119987487793 13.569999694824215 L -39.47999954223633 13.569999694824215 L -39.47999954223633 12.28800010681152 L -39.47999954223633 12.090000152587887 L -36.86399841308594 12.090000152587887 L -32.768001556396484 12.090000152587887 L -30.540000915527344 12.090000152587887 L -29.28499984741211 12.1269998550415 L -28.672000885009766 12.186253547668453 L -28.14699935913086 12.237000465393063 L -27.862180709838867 12.28800010681152 L -27.125 12.420000076293942 L -26.219999313354492 12.677000045776364 L -25.43199920654297 13.006999969482418 L -24.760000228881836 13.409999847412106 L -24.576000213623047 13.564861297607418 L -24.197999954223633 13.883000373840328 L -23.738000869750977 14.423000335693356 M -45.20000076293945 12.090000152587887 L -45.20000076293945 12.28800010681152 L -45.20000076293945 13.026764869689938 L -45.20000076293945 13.175454139709469 L -45.20000076293945 13.210219383239743 L -45.20000076293945 13.258889198303219 L -45.20000076293945 13.334347724914547 L -45.20000076293945 13.41797828674316 L -45.20000076293945 13.47970104217529 L -45.20000076293945 13.546161651611325 L -45.20000076293945 13.569999694824215 L -46.380001068115234 13.569999694824215 L -46.479000091552734 13.571999549865719 L -46.57600021362305 13.579000473022457 L -46.66999816894531 13.590000152587887 L -46.762001037597656 13.605999946594235 L -46.79439926147461 13.613200187683102 L -46.85200119018555 13.626000404357907 L -46.939998626708984 13.64999961853027 L -47.03099822998047 13.673000335693356 L -47.104000091552734 13.698764801025387 L -47.11600112915039 13.703000068664547 L -47.19499969482422 13.73999977111816 L -47.26900100708008 13.782999992370602 L -47.33700180053711 13.833000183105465 L -47.400001525878906 13.89000034332275 L -47.4640007019043 13.96100044250488 L -47.52199935913086 14.038999557495114 L -47.57500076293945 14.124999999999996 L -47.62200164794922 14.218999862670895 L -47.66400146484375 14.321000099182125 L -47.66895294189453 14.33600044250488 L -47.70000076293945 14.430000305175778 L -47.73099899291992 14.557000160217282 L -47.75600051879883 14.696999549865719 L -47.775001525878906 14.850000381469723 L -47.78900146484375 15.017000198364254 L -47.797000885009766 15.196999549865719 L -47.79999923706055 15.39000034332275 L -47.79999923706055 16.38400077819824 L -47.79999923706055 24.57600021362304 L -47.79999923706055 28.629999160766594 L -47.799346923828125 28.67200088500976 L -47.797000885009766 28.822999954223626 L -47.78900146484375 29.003000259399407 L -47.775001525878906 29.170000076293938 L -47.75600051879883 29.322999954223626 L -47.73099899291992 29.462999343872063 L -47.70000076293945 29.590000152587884 L -47.66498947143555 29.695999145507805 L -47.66400146484375 29.69899940490722 L -47.62200164794922 29.801000595092766 L -47.57500076293945 29.895000457763665 L -47.52199935913086 29.981000900268548 L -47.4640007019043 30.059000015258782 L -47.400001525878906 30.129999160766594 L -47.33700180053711 30.187000274658196 L -47.26900100708008 30.236999511718743 L -47.19499969482422 30.2800006866455 L -47.11600112915039 30.316999435424798 L -47.104000091552734 30.321235656738274 L -47.03099822998047 30.347000122070305 L -46.939998626708984 30.37000083923339 L -46.85200119018555 30.388000488281243 L -46.762001037597656 30.40299987792968 L -46.66999816894531 30.415000915527337 L -46.57600021362305 30.423000335693352 L -46.479000091552734 30.427999496459954 L -46.380001068115234 30.430000305175774 L -45.20000076293945 30.430000305175774 L -45.20000076293945 31.909999847412102 L -47.104000091552734 31.909999847412102 L -49.152000427246094 31.909999847412102 L -51.20000076293945 31.909999847412102 L -53.24800109863281 31.909999847412102 L -54.79999923706055 31.909999847412102 L -54.79999923706055 30.600051879882805 L -54.79999923706055 30.53459167480468 L -54.79999923706055 30.49000930786132 L -54.79999923706055 30.452095031738274 L -54.79999923706055 30.430000305175774 L -53.63999938964844 30.430000305175774 L -53.53499984741211 30.427999496459954 L -53.43299865722656 30.423000335693352 L -53.334999084472656 30.415000915527337 L -53.24800109863281 30.40401077270507 L -53.2400016784668 30.40299987792968 L -53.14799880981445 30.388000488281243 L -53.060001373291016 30.37000083923339 L -52.97600173950195 30.347000122070305 L -52.895999908447266 30.316999435424798 L -52.81999969482422 30.2800006866455 L -52.749000549316406 30.236999511718743 L -52.68199920654297 30.187000274658196 L -52.619998931884766 30.129999160766594 L -52.555999755859375 30.059000015258782 L -52.49800109863281 29.981000900268548 L -52.44499969482422 29.895000457763665 L -52.39799880981445 29.801000595092766 L -52.35599899291992 29.69899940490722 L -52.355010986328125 29.695999145507805 L -52.31999969482422 29.590000152587884 L -52.28300094604492 29.462999343872063 L -52.25299835205078 29.322999954223626 L -52.22999954223633 29.170000076293938 L -52.2130012512207 29.003000259399407 L -52.202999114990234 28.822999954223626 L -52.200653076171875 28.67200088500976 L -52.20000076293945 28.629999160766594 L -52.20000076293945 24.57600021362304 L -52.20000076293945 16.38400077819824 L -52.20000076293945 15.39000034332275 L -52.202999114990234 15.196999549865719 L -52.2130012512207 15.017000198364254 L -52.22999954223633 14.850000381469723 L -52.25299835205078 14.696999549865719 L -52.28300094604492 14.557000160217282 L -52.31999969482422 14.430000305175778 L -52.35104751586914 14.33600044250488 L -52.35599899291992 14.321000099182125 L -52.39799880981445 14.218999862670895 L -52.44499969482422 14.124999999999996 L -52.49800109863281 14.038999557495114 L -52.555999755859375 13.96100044250488 L -52.619998931884766 13.89000034332275 L -52.68199920654297 13.833000183105465 L -52.749000549316406 13.782999992370602 L -52.81999969482422 13.73999977111816 L -52.895999908447266 13.703000068664547 L -52.97600173950195 13.673000335693356 L -53.060001373291016 13.64999961853027 L -53.14799880981445 13.626000404357907 L -53.2400016784668 13.605999946594235 L -53.24800109863281 13.604652404785153 L -53.334999084472656 13.590000152587887 L -53.43299865722656 13.579000473022457 L -53.53499984741211 13.571999549865719 L -53.63999938964844 13.569999694824215 L -54.79999923706055 13.569999694824215 L -54.79999923706055 12.090000152587887 L -53.24800109863281 12.090000152587887 L -49.152000427246094 12.090000152587887 L -45.20000076293945 12.090000152587887 M -64.8479995727539 12.260999679565426 L -64.76427459716797 12.28800010681152 L -64.51000213623047 12.369999885559078 L -64.19400024414062 12.487999916076657 L -63.9010009765625 12.614000320434567 L -63.630001068115234 12.749999999999996 L -63.375 12.90100002288818 L -63.143001556396484 13.059000015258786 L -62.935001373291016 13.225000381469723 L -62.75 13.399000167846676 L -62.5880012512207 13.581000328063961 L -62.45000076293945 13.770000457763668 L -62.327999114990234 13.972000122070309 L -62.22800064086914 14.178999900817868 L -62.16996383666992 14.33600044250488 L -62.150001525878906 14.39000034332275 L -62.09400177001953 14.605999946594235 L -62.06100082397461 14.826000213623043 L -62.04999923706055 15.05000019073486 L -62.055999755859375 15.220999717712399 L -62.07400131225586 15.38799953460693 L -62.10499954223633 15.55000019073486 L -62.14799880981445 15.708000183105465 L -62.202999114990234 15.861000061035153 L -62.27000045776367 16.010000228881832 L -62.3489990234375 16.152999877929684 L -62.441001892089844 16.29000091552734 L -62.51620101928711 16.38400077819824 L -62.54499816894531 16.42000007629394 L -62.6609992980957 16.54299926757812 L -62.78900146484375 16.659999847412106 L -62.93000030517578 16.77000045776367 L -63.08300018310547 16.872999191284176 L -63.24800109863281 16.9680004119873 L -63.42499923706055 17.055000305175778 L -63.487998962402344 17.081333160400387 L -63.61399841308594 17.13400077819824 L -63.816001892089844 17.205999374389645 L -64.02999877929688 17.27000045776367 L -64.2490005493164 17.330999374389645 L -64.47899627685547 17.381000518798825 L -64.72000122070312 17.42000007629394 L -64.97200012207031 17.44799995422363 L -65.23600006103516 17.464000701904293 L -65.4838638305664 17.469427108764645 L -65.49989318847656 17.469778060913082 L -65.51000213623047 17.46999931335449 L -65.51399993896484 17.236999511718746 L -65.52799987792969 17.006000518798825 L -65.53600311279297 16.922000885009762 L -65.55000305175781 16.77499961853027 L -65.58100128173828 16.545999526977536 L -65.60929870605469 16.38400077819824 L -65.62100219726562 16.3169994354248 L -65.66999816894531 16.090000152587887 L -65.7229995727539 15.866999626159664 L -65.78800201416016 15.64999961853027 L -65.86499786376953 15.439999580383297 L -65.9540023803711 15.237000465393063 L -66.05599975585938 15.039999961853024 L -66.16999816894531 14.850000381469723 L -66.2969970703125 14.668999671936032 L -66.43699645996094 14.501000404357907 L -66.58999633789062 14.345000267028805 L -66.6004409790039 14.33600044250488 L -66.75700378417969 14.201000213623043 L -66.93699645996094 14.069000244140621 L -67.12999725341797 13.949999809265133 L -67.33100128173828 13.840000152587887 L -67.5479965209961 13.749999999999996 L -67.77999877929688 13.680000305175778 L -68.02799987792969 13.630000114440914 L -68.29100036621094 13.600000381469723 L -68.56999969482422 13.590000152587887 L -68.9990005493164 13.605999946594235 L -69.40599822998047 13.65200042724609 L -69.63200378417969 13.697906494140621 L -69.79000091552734 13.729999542236325 L -70.1520004272461 13.838999748229977 L -70.49199676513672 13.97900009155273 L -70.80999755859375 14.14999961853027 L -71.07928466796875 14.33600044250488 L -71.10099792480469 14.350999832153317 L -71.37200164794922 14.581000328063961 L -71.625 14.840000152587887 L -71.85900115966797 15.12800025939941 L -72.0739974975586 15.444000244140621 L -72.2699966430664 15.789999961853024 L -72.44200134277344 16.15699958801269 L -72.53107452392578 16.38400077819824 L -72.59700012207031 16.552000045776364 L -72.73500061035156 16.975000381469723 L -72.85700225830078 17.42600059509277 L -72.96199798583984 17.903999328613278 L -73.05000305175781 18.409999847412106 L -73.12300109863281 18.94799995422363 L -73.18299865722656 19.510000228881832 L -73.2300033569336 20.09499931335449 L -73.25089263916016 20.479999542236325 L -73.26300048828125 20.70299911499023 L -73.28299713134766 21.334999084472653 L -73.29000091552734 21.98999977111816 L -73.28199768066406 22.642999649047848 L -73.25900268554688 23.267999649047848 L -73.22000122070312 23.86499977111816 L -73.16600036621094 24.434000015258782 L -73.14765930175781 24.57600021362304 L -73.09600067138672 24.975999832153313 L -73.01000213623047 25.489999771118157 L -72.89900207519531 25.975999832153313 L -72.76799774169922 26.434000015258782 L -72.61499786376953 26.864999771118157 L -72.44100189208984 27.267999649047844 L -72.24600219726562 27.642999649047844 L -72.02999877929688 27.989999771118157 L -71.79900360107422 28.309000015258782 L -71.5459976196289 28.600999832153313 L -71.47177124023438 28.67200088500976 L -71.2699966430664 28.864999771118157 L -70.97200012207031 29.100999832153313 L -70.6520004272461 29.309000015258782 L -70.30999755859375 29.489999771118157 L -69.94300079345703 29.636999130249016 L -69.63200378417969 29.731481552124016 L -69.5479965209961 29.756999969482415 L -69.125 29.85000038146972 L -68.67400360107422 29.916999816894524 L -68.19599914550781 29.957000732421868 L -67.69000244140625 29.969999313354485 L -67.58399963378906 29.96809005737304 L -67.35700225830078 29.96400070190429 L -67.03700256347656 29.945999145507805 L -66.7300033569336 29.915000915527337 L -66.43699645996094 29.87199974060058 L -66.15699768066406 29.816999435424798 L -65.88999938964844 29.749999999999993 L -65.62799835205078 29.66600036621093 L -65.53600311279297 29.632278442382805 L -65.37699890136719 29.57399940490722 L -65.13500213623047 29.47500038146972 L -64.90299987792969 29.36800003051757 L -64.68199920654297 29.253000259399407 L -64.47000122070312 29.129999160766594 L -64.26699829101562 29.000999450683587 L -64.0719985961914 28.86599922180175 L -63.8849983215332 28.72500038146972 L -63.82001876831055 28.67200088500976 L -63.70600128173828 28.579000473022454 L -63.534000396728516 28.42700004577636 L -63.487998962402344 28.382963180541985 L -63.369998931884766 28.270000457763665 L -63.21900177001953 28.11100006103515 L -63.07400131225586 27.951999664306634 L -62.935001373291016 27.795000076293938 L -62.80873107910156 27.64800071716308 L -62.80099868774414 27.638999938964837 L -62.67300033569336 27.48399925231933 L -62.54999923706055 27.329999923706048 L -62.479000091552734 27.393999099731438 L -62.41400146484375 27.468000411987298 L -62.35499954223633 27.54999923706054 L -62.30099868774414 27.641000747680657 L -62.29764175415039 27.64800071716308 L -62.255332946777344 27.73613548278808 L -62.25299835205078 27.74099922180175 L -62.209999084472656 27.85000038146972 L -62.16699981689453 27.95800018310546 L -62.13199996948242 28.068000793457024 L -62.10499954223633 28.180000305175774 L -62.08599853515625 28.294000625610344 L -62.07400131225586 28.410999298095696 L -62.06999969482422 28.5300006866455 L -62.07651901245117 28.67200088500976 L -62.07899856567383 28.725999832153313 L -62.10599899291992 28.926000595092766 L -62.150001525878906 29.129999160766594 L -62.21200180053711 29.33900070190429 L -62.29199981689453 29.55200004577636 L -62.38999938964844 29.770000457763665 L -62.507999420166016 29.981000900268548 L -62.64799880981445 30.186000823974602 L -62.810001373291016 30.38500022888183 L -62.99399948120117 30.579000473022454 L -63.14925003051758 30.719999313354485 L -63.20100021362305 30.76700019836425 L -63.43000030517578 30.950000762939446 L -63.68899917602539 31.124999999999993 L -63.9739990234375 31.290000915527337 L -64.28500366210938 31.44499969482421 L -64.62100219726562 31.590000152587884 L -64.98300170898438 31.72500038146972 L -65.37000274658203 31.85000038146972 L -65.53600311279297 31.890909194946282 L -65.79199981689453 31.954000473022454 L -66.24299621582031 32.03900146484374 L -66.7249984741211 32.10499954223632 L -67.23699951171875 32.15200042724609 L -67.58399963378906 32.170600891113274 L -67.77799987792969 32.18099975585937 L -68.3499984741211 32.18999862670898 L -69.13899993896484 32.169998168945305 L -69.63200378417969 32.13082122802734 L -69.89399719238281 32.110000610351555 L -70.61499786376953 32.009998321533196 L -71.3010025024414 31.87000083923339 L -71.9530029296875 31.69000053405761 L -72.56999969482422 31.469999313354485 L -73.15299987792969 31.207000732421868 L -73.7030029296875 30.909999847412102 L -73.72799682617188 30.894042968749993 L -74.22000122070312 30.579999923706048 L -74.7030029296875 30.21699905395507 L -75.15299987792969 29.81999969482421 L -75.56999969482422 29.38999938964843 L -75.9530029296875 28.927999496459954 L -76.3030014038086 28.437000274658196 L -76.62000274658203 27.915000915527337 L -76.90299987792969 27.36300086975097 L -77.15299987792969 26.781999588012688 L -77.37000274658203 26.170000076293938 L -77.5469970703125 25.531999588012688 L -77.69200134277344 24.87000083923339 L -77.7405014038086 24.57600021362304 L -77.80500030517578 24.184999465942376 L -77.88600158691406 23.47699928283691 L -77.93399810791016 22.745000839233395 L -77.94999694824219 21.98999977111816 L -77.93299865722656 21.247999191284176 L -77.88300323486328 20.527999877929684 L -77.80000305175781 19.82999992370605 L -77.68299865722656 19.153999328613278 L -77.53299713134766 18.50099945068359 L -77.3499984741211 17.870000839233395 L -77.12699890136719 17.257999420166012 L -76.87200164794922 16.677000045776364 L -76.71965789794922 16.38400077819824 L -76.58499908447266 16.124999999999996 L -76.26599884033203 15.60299968719482 L -75.91400146484375 15.112000465393063 L -75.52999877929688 14.64999961853027 L -75.11399841308594 14.220000267028805 L -74.66600036621094 13.82299995422363 L -74.18499755859375 13.460000038146969 L -73.72799682617188 13.166023254394528 L -73.6719970703125 13.130000114440914 L -73.12699890136719 12.833000183105465 L -72.55000305175781 12.569999694824215 L -71.93399810791016 12.338000297546383 L -71.76399993896484 12.28800010681152 L -71.28800201416016 12.147999763488766 L -70.61000061035156 11.999999999999996 L -69.9010009765625 11.89400005340576 L -69.63200378417969 11.87109851837158 L -69.16100311279297 11.831000328063963 L -68.38999938964844 11.810000419616697 L -67.86799621582031 11.81700038909912 L -67.36799621582031 11.838999748229979 L -66.88999938964844 11.874999999999998 L -66.43399810791016 11.925999641418455 L -66.0009994506836 11.991000175476072 L -65.58999633789062 12.069999694824215 L -65.53600311279297 12.082863807678219 L -65.20800018310547 12.161000251770016 L -64.8479995727539 12.260999679565426 M 27.450000762939453 -8.449999809265135 L 26.270000457763672 -8.449999809265135 L 26.17099952697754 -8.447999954223631 L 26.073999404907227 -8.44099998474121 L 25.979999542236328 -8.43000030517578 L 25.88800048828125 -8.413999557495115 L 25.79800033569336 -8.39400005340576 L 25.709999084472656 -8.36999988555908 L 25.625999450683594 -8.34700012207031 L 25.54599952697754 -8.31700038909912 L 25.469999313354492 -8.27999973297119 L 25.39900016784668 -8.237000465393065 L 25.338699340820312 -8.19200038909912 L 25.332000732421875 -8.187000274658201 L 25.270000457763672 -8.130000114440916 L 25.20599937438965 -8.059000015258787 L 25.148000717163086 -7.9809999465942365 L 25.094999313354492 -7.894999980926512 L 25.04800033569336 -7.8010001182556135 L 25.006000518798828 -7.698999881744383 L 24.969999313354492 -7.590000152587889 L 24.93899917602539 -7.462999820709227 L 24.913999557495117 -7.322999954223631 L 24.895000457763672 -7.1700000762939435 L 24.881000518798828 -7.002999782562254 L 24.87299919128418 -6.822999954223631 L 24.8700008392334 -6.630000114440916 L 24.8700008392334 1.1102230246251565e-16 L 24.8700008392334 6.630000114440916 L 24.87299919128418 6.822999954223631 L 24.881000518798828 7.002999782562254 L 24.895000457763672 7.1700000762939435 L 24.913999557495117 7.322999954223631 L 24.93899917602539 7.462999820709227 L 24.969999313354492 7.590000152587889 L 25.006000518798828 7.698999881744383 L 25.04800033569336 7.8010001182556135 L 25.094999313354492 7.894999980926512 L 25.148000717163086 7.9809999465942365 L 25.20599937438965 8.059000015258787 L 25.270000457763672 8.130000114440916 L 25.332000732421875 8.187000274658201 L 25.338699340820312 8.19200038909912 L 25.39900016784668 8.237000465393065 L 25.469999313354492 8.27999973297119 L 25.54599952697754 8.31700038909912 L 25.625999450683594 8.34700012207031 L 25.709999084472656 8.36999988555908 L 25.79800033569336 8.387999534606932 L 25.88800048828125 8.402999877929686 L 25.979999542236328 8.414999961853026 L 26.073999404907227 8.423000335693358 L 26.17099952697754 8.428000450134276 L 26.270000457763672 8.43000030517578 L 27.43000030517578 8.43000030517578 L 27.43000030517578 9.909999847412108 L 24.576000213623047 9.909999847412108 L 18.549999237060547 9.909999847412108 L 18.549999237060547 9.229740142822264 L 18.549999237060547 9.04672336578369 L 18.549999237060547 8.890000343322752 L 18.549999237060547 8.778196334838865 L 18.549999237060547 8.679621696472166 L 18.549999237060547 8.607454299926756 L 18.549999237060547 8.497586250305174 L 18.549999237060547 8.47773742675781 L 18.549999237060547 8.462519645690916 L 18.549999237060547 8.450450897216795 L 18.549999237060547 8.437782287597654 L 18.549999237060547 8.431805610656737 L 18.549999237060547 8.43000030517578 L 18.809999465942383 8.43000030517578 L 18.95400047302246 8.42899990081787 L 19.091999053955078 8.425999641418455 L 19.225000381469727 8.420000076293944 L 19.351999282836914 8.411999702453612 L 19.474000930786133 8.402000427246092 L 19.59000015258789 8.390000343322752 L 19.700000762939453 8.366999626159666 L 19.80299949645996 8.338999748229979 L 19.899999618530273 8.30500030517578 L 19.989999771118164 8.265999794006346 L 20.072999954223633 8.2209997177124 L 20.116785049438477 8.19200038909912 L 20.149999618530273 8.170000076293944 L 20.219999313354492 8.112999916076658 L 20.283000946044922 8.048000335693358 L 20.34000015258789 7.974999904632567 L 20.389999389648438 7.89400005340576 L 20.433000564575195 7.806000232696531 L 20.469999313354492 7.710000038146971 L 20.506999969482422 7.598000049591063 L 20.53700065612793 7.477000236511229 L 20.559999465942383 7.344999790191649 L 20.57699966430664 7.203000068664549 L 20.586999893188477 7.052000045776365 L 20.59000015258789 6.889999866485594 L 20.59000015258789 1.1102230246251565e-16 L 20.59000015258789 -7.1700000762939435 L 18.222389221191406 1.1102230246251565e-16 L 16.384000778198242 5.5673189163208 L 14.949999809265137 9.909999847412108 L 13.069999694824219 9.909999847412108 L 13.050941467285156 9.854451179504393 L 9.669964790344238 1.1102230246251565e-16 L 8.192000389099121 -4.307788372039794 L 8.003868103027344 -4.85613203048706 L 7.623456954956055 -5.96490716934204 L 7.210000038146973 -7.1700000762939435 L 7.210000038146973 -6.27500009536743 L 7.210000038146973 -5.650000095367431 L 7.210000038146973 -4.9780001640319815 L 7.210000038146973 -4.332829952239989 L 7.210000038146973 -3.4284043312072745 L 7.210000038146973 -2.415190458297729 L 7.210000038146973 -0.9688888788223263 L 7.210000038146973 -0.9110810756683346 L 7.210000038146973 1.1102230246251565e-16 L 7.210000038146973 4.09600019454956 L 7.210000038146973 6.14400005340576 L 7.210000038146973 6.630000114440916 L 7.214000225067139 6.822999954223631 L 7.22599983215332 7.002999782562254 L 7.244999885559082 7.1700000762939435 L 7.271999835968018 7.322999954223631 L 7.307000160217285 7.462999820709227 L 7.349999904632568 7.590000152587889 L 7.400000095367432 7.698999881744383 L 7.456999778747559 7.8010001182556135 L 7.519999980926514 7.894999980926512 L 7.590000152587891 7.9809999465942365 L 7.666999816894531 8.059000015258787 L 7.75 8.130000114440916 L 7.840000152587891 8.187000274658201 L 7.849699974060059 8.19200038909912 L 7.936999797821045 8.237000465393065 L 8.039999961853027 8.27999973297119 L 8.149999618530273 8.31700038909912 L 8.192000389099121 8.327769279479979 L 8.267000198364258 8.34700012207031 L 8.390000343322754 8.36999988555908 L 8.520000457763672 8.387999534606932 L 8.656999588012695 8.402999877929686 L 8.800000190734863 8.414999961853026 L 8.949999809265137 8.423000335693358 L 9.107000350952148 8.428000450134276 L 9.270000457763672 8.43000030517578 L 9.430000305175781 8.43000030517578 L 9.430000305175781 9.909999847412108 L 8.192000389099121 9.909999847412108 L 4.0960001945495605 9.909999847412108 L 2.549999952316284 9.909999847412108 L 2.549999952316284 8.58323574066162 L 2.549999952316284 8.548988342285154 L 2.549999952316284 8.514615058898924 L 2.549999952316284 8.47030735015869 L 2.549999952316284 8.442473411560057 L 2.549999952316284 8.43000030517578 L 3.7100000381469727 8.43000030517578 L 3.802999973297119 8.42899990081787 L 3.8940000534057617 8.425999641418455 L 3.984999895095825 8.420000076293944 L 4.073999881744385 8.411999702453612 L 4.0960001945495605 8.409527778625487 L 4.163000106811523 8.402000427246092 L 4.25 8.390000343322752 L 4.335000038146973 8.366999626159666 L 4.416999816894531 8.338999748229979 L 4.494999885559082 8.30500030517578 L 4.570000171661377 8.265999794006346 L 4.642000198364258 8.2209997177124 L 4.680666446685791 8.19200038909912 L 4.710000038146973 8.170000076293944 L 4.77400016784668 8.105999946594237 L 4.831999778747559 8.034000396728514 L 4.885000228881836 7.954999923706053 L 4.932000160217285 7.868000030517576 L 4.973999977111816 7.772999763488768 L 5.010000228881836 7.6700000762939435 L 5.046999931335449 7.5510001182556135 L 5.077000141143799 7.4210000038146955 L 5.099999904632568 7.280000209808348 L 5.117000102996826 7.127999782562254 L 5.126999855041504 6.964000225067137 L 5.130000114440918 6.789999961853026 L 5.130000114440918 6.14400005340576 L 5.130000114440918 4.09600019454956 L 5.130000114440918 1.1102230246251565e-16 L 5.130000114440918 -6.749999999999998 L 5.126999855041504 -6.929999828338621 L 5.117000102996826 -7.097000122070311 L 5.099999904632568 -7.249999999999998 L 5.077000141143799 -7.389999866485594 L 5.046999931335449 -7.517000198364256 L 5.010000228881836 -7.630000114440916 L 4.973999977111816 -7.73899984359741 L 4.932000160217285 -7.839000225067137 L 4.885000228881836 -7.929999828338621 L 4.831999778747559 -8.012000083923338 L 4.77400016784668 -8.086000442504881 L 4.710000038146973 -8.149999618530272 L 4.6539998054504395 -8.19200038909912 L 4.642000198364258 -8.201000213623045 L 4.570000171661377 -8.24600028991699 L 4.494999885559082 -8.284999847412108 L 4.416999816894531 -8.319000244140623 L 4.341833114624023 -8.344666481018065 L 4.335000038146973 -8.34700012207031 L 4.25 -8.36999988555908 L 4.163000106811523 -8.39400005340576 L 4.073999881744385 -8.413999557495115 L 3.984999895095825 -8.43000030517578 L 3.8940000534057617 -8.44099998474121 L 3.802999973297119 -8.447999954223631 L 3.7100000381469727 -8.449999809265135 L 2.549999952316284 -8.449999809265135 L 2.549999952316284 -9.909999847412108 L 8.192000389099121 -9.909999847412108 L 10.529999732971191 -9.909999847412108 L 13.941638946533203 1.1102230246251565e-16 L 15.149999618530273 3.509999990463256 L 16.311281204223633 1.1102230246251565e-16 L 16.384000778198242 -0.2197927981615065 L 19.59000015258789 -9.909999847412108 L 21.49477767944336 -9.909999847412108 L 24.576000213623047 -9.909999847412108 L 27.450000762939453 -9.909999847412108 L 27.450000762939453 -9.767597198486326 L 27.450000762939453 -9.47915458679199 L 27.450000762939453 -9.243947029113768 L 27.450000762939453 -9.0310001373291 L 27.450000762939453 -8.846428871154783 L 27.450000762939453 -8.844545364379881 L 27.450000762939453 -8.761111259460447 L 27.450000762939453 -8.685651779174803 L 27.450000762939453 -8.60202121734619 L 27.450000762939453 -8.540299415588377 L 27.450000762939453 -8.473838806152342 L 27.450000762939453 -8.449999809265135 M 0.4000000059604645 9.909999847412108 L 0 9.909999847412108 L -4.0960001945495605 9.909999847412108 L -8.192000389099121 9.909999847412108 L -8.760000228881836 9.909999847412108 L -8.760000228881836 8.43000030517578 L -8.192000389099121 8.43000030517578 L -7.679999828338623 8.43000030517578 L -7.61299991607666 8.428000450134276 L -7.544000148773193 8.423000335693358 L -7.474999904632568 8.414999961853026 L -7.4039998054504395 8.402999877929686 L -7.333000183105469 8.387999534606932 L -7.260000228881836 8.36999988555908 L -7.188000202178955 8.347999572753904 L -7.119999885559082 8.322999954223631 L -7.054999828338623 8.295000076293944 L -6.993000030517578 8.262999534606932 L -6.934999942779541 8.227999687194822 L -6.882894515991211 8.19200038909912 L -6.880000114440918 8.189999580383299 L -6.822000026702881 8.147000312805174 L -6.769000053405762 8.098999977111815 L -6.71999979019165 8.045000076293944 L -6.676000118255615 7.9860000610351545 L -6.636000156402588 7.9210000038146955 L -6.599999904632568 7.849999904632567 L -6.568999767303467 7.7810001373291 L -6.544000148773193 7.708000183105467 L -6.537179470062256 7.679999828338621 L -6.525000095367432 7.630000114440916 L -6.511000156402588 7.547999858856199 L -6.502999782562256 7.460999965667723 L -6.5 7.36999988555908 L -6.501999855041504 7.25699996948242 L -6.507612705230713 7.16800022125244 L -6.508999824523926 7.145999908447264 L -6.519999980926514 7.034999847412108 L -6.535999774932861 6.9260001182556135 L -6.556000232696533 6.816999912261961 L -6.579187393188477 6.713623523712156 L -6.579999923706055 6.710000038146971 L -6.60699987411499 6.611999988555906 L -6.632999897003174 6.517000198364256 L -6.658051490783691 6.431639194488524 L -6.659999847412109 6.4250001907348615 L -6.686999797821045 6.336999893188475 L -6.7129998207092285 6.251999855041502 L -6.739999771118164 6.1700000762939435 L -6.7491655349731445 6.14400005340576 L -7.4711222648620605 4.09600019454956 L -7.71999979019165 3.390000104904174 L -8.192000389099121 3.390000104904174 L -14.460000038146973 3.390000104904174 L -14.695333480834961 4.09600019454956 L -15.260000228881836 5.7899999618530265 L -15.298999786376953 5.906000137329101 L -15.338000297546387 6.027999877929686 L -15.371795654296875 6.14400005340576 L -15.375 6.155000209808348 L -15.40468692779541 6.264676570892332 L -15.41100025177002 6.288000106811522 L -15.446000099182129 6.4260001182556135 L -15.479999542236328 6.570000171661375 L -15.517000198364258 6.719999790191649 L -15.54699993133545 6.862999916076658 L -15.569999694824219 6.999999999999998 L -15.586999893188477 7.130000114440916 L -15.590089797973633 7.16800022125244 L -15.597000122070312 7.252999782562254 L -15.600000381469727 7.36999988555908 L -15.597000122070312 7.460999965667723 L -15.58899974822998 7.547999858856199 L -15.574999809265137 7.630000114440916 L -15.555999755859375 7.708000183105467 L -15.531000137329102 7.7810001373291 L -15.5 7.849999904632567 L -15.458000183105469 7.914000034332274 L -15.413000106811523 7.973999977111815 L -15.364999771118164 8.02999973297119 L -15.359999656677246 8.03490352630615 L -15.312999725341797 8.081000328063963 L -15.309886932373047 8.08366012573242 L -15.258000373840332 8.128000259399412 L -15.199999809265137 8.170000076293944 L -15.17199993133545 8.19200038909912 L -15.144000053405762 8.213999748229979 L -15.083999633789062 8.253999710083006 L -15.020000457763672 8.289999961853026 L -14.951000213623047 8.321000099182127 L -14.878000259399414 8.347999572753904 L -14.800000190734863 8.36999988555908 L -14.72599983215332 8.387999534606932 L -14.651000022888184 8.402999877929686 L -14.574999809265137 8.414999961853026 L -14.498000144958496 8.423000335693358 L -14.418999671936035 8.428000450134276 L -14.34000015258789 8.43000030517578 L -13.15999984741211 8.43000030517578 L -13.15999984741211 9.909999847412108 L -16.384000778198242 9.909999847412108 L -20.399999618530273 9.909999847412108 L -20.399999618530273 8.963437080383299 L -20.399999618530273 8.849123954772947 L -20.399999618530273 8.740838050842283 L -20.399999618530273 8.663131713867186 L -20.399999618530273 8.585293769836424 L -20.399999618530273 8.541850090026854 L -20.399999618530273 8.508018493652342 L -20.399999618530273 8.474482536315916 L -20.399999618530273 8.453900337219237 L -20.399999618530273 8.43516159057617 L -20.399999618530273 8.43000030517578 L -20.079999923706055 8.43000030517578 L -19.95599937438965 8.428000450134276 L -19.836000442504883 8.420999526977537 L -19.719999313354492 8.409999847412108 L -19.608999252319336 8.39400005340576 L -19.50200080871582 8.373999595642088 L -19.399999618530273 8.350000381469725 L -19.301000595092773 8.319000244140623 L -19.20199966430664 8.2810001373291 L -19.104999542236328 8.234999656677244 L -19.028554916381836 8.19200038909912 L -19.009000778198242 8.180999755859373 L -18.913999557495117 8.119000434875487 L -18.81999969482422 8.050000190734862 L -18.733999252319336 7.972000122070311 L -18.64900016784668 7.882999897003172 L -18.565000534057617 7.784999847412108 L -18.48200035095215 7.677000045776365 L -18.43199920654297 7.603543281555174 L -18.400999069213867 7.558000087738035 L -18.31999969482422 7.429999828338621 L -18.239999771118164 7.296999931335447 L -18.15999984741211 7.15000009536743 L -18.079999923706055 6.989999771118162 L -18 6.816999912261961 L -17.920000076293945 6.630000114440916 L -17.84000015258789 6.429999828338621 L -17.73463249206543 6.14400005340576 L -16.980104446411133 4.09600019454956 L -16.384000778198242 2.477999925613403 L -15.471052169799805 1.1102230246251565e-16 L -13.961999893188477 -4.09600019454956 L -12.452947616577148 -8.19200038909912 L -11.819999694824219 -9.909999847412108 L -8.192000389099121 -9.909999847412108 L -8.020000457763672 -9.909999847412108 L -4.506674766540527 1.1102230246251565e-16 L -3.0545477867126465 4.09600019454956 L -2.328484058380127 6.14400005340576 L -2.2200000286102295 6.449999809265135 L -2.1470000743865967 6.63800001144409 L -2.072999954223633 6.814000129699705 L -2.0480000972747803 6.87084913253784 L -2 6.9800000190734846 L -1.9270000457763672 7.133999824523924 L -1.8530000448226929 7.277999877929686 L -1.7799999713897705 7.409999847412108 L -1.7059999704360962 7.538000106811522 L -1.628999948501587 7.657000064849852 L -1.5499999523162842 7.764999866485594 L -1.468999981880188 7.862999916076658 L -1.3860000371932983 7.952000141143797 L -1.2999999523162842 8.02999973297119 L -1.2120000123977661 8.100000381469725 L -1.121999979019165 8.163000106811522 L -1.075192928314209 8.19200038909912 L -1.0299999713897705 8.220000267028807 L -0.9359999895095825 8.27000045776367 L -0.8389999866485596 8.312999725341795 L -0.7400000095367432 8.350000381469725 L -0.6389999985694885 8.373999595642088 L -0.5379999876022339 8.39400005340576 L -0.4350000023841858 8.409999847412108 L -0.3310000002384186 8.420999526977537 L -0.22599999606609344 8.428000450134276 L -0.11999999731779099 8.43000030517578 L 0 8.43000030517578 L 0.4000000059604645 8.43000030517578 L 0.4000000059604645 9.909999847412108 M -10.640000343322754 -5.989999771118163 L -10.679798126220703 -6.14400005340576 L -10.685999870300293 -6.16800022125244 L -10.730999946594238 -6.342999935150145 L -10.748947143554688 -6.413157939910887 L -10.774999618530273 -6.514999866485594 L -10.817999839782715 -6.683000087738035 L -10.859000205993652 -6.848000049591063 L -10.894803047180176 -6.989466667175291 L -10.896307945251465 -6.995413303375242 L -10.89756965637207 -7.000398159027098 L -10.89816665649414 -7.0027565956115705 L -10.899750709533691 -7.0090150833129865 L -10.899999618530273 -7.010000228881834 L -10.940999984741211 -6.868000030517576 L -10.984000205993652 -6.721000194549559 L -11.029999732971191 -6.570000171661375 L -11.07800006866455 -6.414000034332274 L -11.128000259399414 -6.254000186920164 L -11.162878036499023 -6.14400005340576 L -11.180000305175781 -6.090000152587889 L -11.234000205993652 -5.9229998588562 L -11.288999557495117 -5.754000186920165 L -11.345000267028809 -5.585000038146972 L -11.3725004196167 -5.502500057220458 L -11.402000427246094 -5.4140000343322745 L -11.461000442504883 -5.243000030517577 L -11.502947807312012 -5.119999885559081 L -11.520000457763672 -5.070000171661376 L -11.642000198364258 -4.711999893188476 L -11.704999923706055 -4.5349998474121085 L -11.769000053405762 -4.3590002059936515 L -11.833999633789062 -4.184000015258788 L -11.867379188537598 -4.09600019454956 L -11.890901565551758 -4.033986091613769 L -11.899999618530273 -4.010000228881835 L -11.958999633789062 -3.832000017166137 L -11.988499641418457 -3.744499921798705 L -12.017999649047852 -3.6570000648498526 L -12.074999809265137 -3.4849998950958243 L -12.239999771118164 -2.9900000095367427 L -12.288000106811523 -2.8530244827270503 L -13.2877779006958 1.1102230246251565e-16 L -13.880000114440918 1.6900000572204585 L -8.260000228881836 1.6900000572204585 L -8.810925483703613 1.1102230246251565e-16 L -9.478554725646973 -2.04800009727478 L -9.591362953186035 -2.3940458297729488 L -9.669940948486328 -2.635088682174682 L -9.685473442077637 -2.6827368736267085 L -9.722440719604492 -2.7961356639862056 L -9.739999771118164 -2.849999904632568 L -9.786999702453613 -3.010999917984008 L -9.836000442504883 -3.1740000247955313 L -9.848250389099121 -3.2155001163482657 L -9.885000228881836 -3.3399999141693106 L -9.935999870300293 -3.507999897003173 L -9.947250366210938 -3.5455000400543204 L -9.987000465393066 -3.6779999732971183 L -10.039999961853027 -3.8499999046325675 L -10.093000411987305 -4.024000167846679 L -10.113983154296875 -4.09600019454956 L -10.144000053405762 -4.198999881744384 L -10.194999694824219 -4.374999999999999 L -10.239999771118164 -4.537550926208495 L -10.244000434875488 -4.552000045776366 L -10.293000221252441 -4.730999946594237 L -10.314708709716797 -4.813677310943603 L -10.34000015258789 -4.9099998474121085 L -10.392999649047852 -5.09000015258789 L -10.40149974822998 -5.119999885559081 L -10.494999885559082 -5.449999809265136 L -10.593000411987305 -5.80999994277954 L -10.640000343322754 -5.989999771118163 M -22.709999084472656 -9.909999847412108 L -22.709999084472656 -4.7899999618530265 L -24.576000213623047 -4.7899999618530265 L -24.59000015258789 -4.7899999618530265 L -24.729999542236328 -6.090000152587889 L -24.777999877929688 -6.4169998168945295 L -24.840999603271484 -6.717000007629393 L -24.920000076293945 -6.989999771118162 L -25.013999938964844 -7.236999988555906 L -25.124000549316406 -7.456999778747557 L -25.25 -7.65000009536743 L -25.395999908447266 -7.821000099182127 L -25.56800079345703 -7.960999965667723 L -25.764999389648438 -8.069999694824217 L -25.988000869750977 -8.147999763488768 L -26.225217819213867 -8.19200038909912 L -26.236000061035156 -8.194000244140623 L -26.510000228881836 -8.21000003814697 L -31.190000534057617 -8.21000003814697 L -31.190000534057617 -8.19200038909912 L -31.190000534057617 -4.09600019454956 L -31.190000534057617 -1.2699999809265132 L -24.59000015258789 -1.2699999809265132 L -24.59000015258789 1.1102230246251565e-16 L -24.59000015258789 0.38999998569488525 L -31.190000534057617 0.38999998569488525 L -31.190000534057617 8.21000003814697 L -25.6299991607666 8.21000003814697 L -25.493000030517578 8.206000328063963 L -25.363000869750977 8.194000244140623 L -25.239999771118164 8.175000190734862 L -25.12299919128418 8.147999763488768 L -25.01300048828125 8.112999916076658 L -24.90999984741211 8.069999694824217 L -24.812000274658203 8.012999534606932 L -24.7189998626709 7.949999809265135 L -24.6299991607666 7.880000114440916 L -24.576000213623047 7.830500125885008 L -24.54599952697754 7.802999973297117 L -24.465999603271484 7.719999790191649 L -24.389999389648438 7.630000114440916 L -24.319000244140625 7.527999877929686 L -24.253999710083008 7.4210000038146955 L -24.19499969482422 7.309999942779539 L -24.141000747680664 7.193999767303465 L -24.130599975585938 7.16800022125244 L -24.093000411987305 7.073999881744383 L -24.049999237060547 6.949999809265135 L -24.006000518798828 6.821000099182127 L -23.965999603271484 6.688000202178953 L -23.93000030517578 6.5500001907348615 L -23.89900016784668 6.407999992370604 L -23.871999740600586 6.261000156402586 L -23.85495376586914 6.14400005340576 L -23.850000381469727 6.1100001335144025 L -23.6299991607666 4.80999994277954 L -21.809999465942383 4.80999994277954 L -21.809999465942383 6.14400005340576 L -21.809999465942383 8.19200038909912 L -21.809999465942383 9.909999847412108 L -24.576000213623047 9.909999847412108 L -26.844545364379883 9.909999847412108 L -27.211000442504883 9.909999847412108 L -27.612333297729492 9.909999847412108 L -28.073509216308594 9.909999847412108 L -29.317441940307617 9.909999847412108 L -30.660715103149414 9.909999847412108 L -32.75833511352539 9.909999847412108 L -32.768001556396484 9.909999847412108 L -38.109649658203125 9.909999847412108 L -38.189998626708984 9.909999847412108 L -38.189998626708984 9.673666954040526 L -38.189998626708984 9.426600456237791 L -38.189998626708984 9.232115745544432 L -38.189998626708984 9.027365684509276 L -38.189998626708984 8.855411529541014 L -38.189998626708984 8.624545097351072 L -38.189998626708984 8.583333015441893 L -38.189998626708984 8.546087265014647 L -38.189998626708984 8.512553215026854 L -38.189998626708984 8.467938423156737 L -38.189998626708984 8.441717147827147 L -38.189998626708984 8.43000030517578 L -37.029998779296875 8.43000030517578 L -36.930999755859375 8.42899990081787 L -36.83399963378906 8.425999641418455 L -36.7400016784668 8.420000076293944 L -36.64799880981445 8.411999702453612 L -36.55799865722656 8.402000427246092 L -36.470001220703125 8.390000343322752 L -36.3849983215332 8.366999626159666 L -36.303001403808594 8.336999893188475 L -36.224998474121094 8.300000190734862 L -36.150001525878906 8.25699996948242 L -36.077999114990234 8.206999778747557 L -36.06010437011719 8.19200038909912 L -36.0099983215332 8.149999618530272 L -35.94599914550781 8.092000007629393 L -35.88800048828125 8.022999763488768 L -35.834999084472656 7.945000171661375 L -35.78799819946289 7.8569998741149885 L -35.74599838256836 7.757999897003172 L -35.709999084472656 7.65000009536743 L -35.67300033569336 7.53700017929077 L -35.643001556396484 7.41200017929077 L -35.619998931884766 7.27500009536743 L -35.60300064086914 7.12599992752075 L -35.59299850463867 6.964000225067137 L -35.59000015258789 6.789999961853026 L -35.59000015258789 1.1102230246251565e-16 L -35.59000015258789 -6.630000114440916 L -35.59299850463867 -6.822999954223631 L -35.60300064086914 -7.00099992752075 L -35.619998931884766 -7.164999961853026 L -35.643001556396484 -7.314000129699705 L -35.67300033569336 -7.448999881744383 L -35.709999084472656 -7.570000171661375 L -35.74599838256836 -7.684999942779539 L -35.78799819946289 -7.789999961853026 L -35.834999084472656 -7.885000228881834 L -35.88800048828125 -7.969999790191649 L -35.945884704589844 -8.044849395751951 L -35.94599914550781 -8.045000076293944 L -36.0099983215332 -8.109999656677244 L -36.071998596191406 -8.173000335693358 L -36.09514617919922 -8.19200038909912 L -36.138999938964844 -8.227999687194822 L -36.209999084472656 -8.274999618530272 L -36.2859992980957 -8.314000129699705 L -36.36600112915039 -8.3459997177124 L -36.45000076293945 -8.36999988555908 L -36.53799819946289 -8.387999534606932 L -36.630001068115234 -8.402999877929686 L -36.724998474121094 -8.414999961853026 L -36.823001861572266 -8.423000335693358 L -36.92499923706055 -8.428000450134276 L -37.029998779296875 -8.43000030517578 L -38.189998626708984 -8.43000030517578 L -38.189998626708984 -9.909999847412108 L -32.768001556396484 -9.909999847412108 L -31.190000534057617 -9.909999847412108 L -24.576000213623047 -9.909999847412108 L -22.709999084472656 -9.909999847412108 M -44.7599983215332 -8.590000152587889 L -44.287113189697266 -8.19200038909912 L -44.198001861572266 -8.116999626159666 L -43.737998962402344 -7.577000141143797 L -43.380001068115234 -6.969999790191649 L -43.124000549316406 -6.296999931335447 L -42.97100067138672 -5.557000160217284 L -42.91999816894531 -4.749999999999999 L -42.92900085449219 -4.395999908447265 L -42.954437255859375 -4.09600019454956 L -42.95800018310547 -4.05399990081787 L -43.005001068115234 -3.7249999046325675 L -43.07099914550781 -3.4079999923706046 L -43.15599822998047 -3.1029999256134024 L -43.2599983215332 -2.8099999427795406 L -43.37300109863281 -2.529000043869018 L -43.49800109863281 -2.2609999179840083 L -43.61198806762695 -2.04800009727478 L -43.6349983215332 -2.0050001144409175 L -43.784000396728516 -1.761000037193298 L -43.94599914550781 -1.529000043869018 L -44.119998931884766 -1.3099999427795406 L -44.303001403808594 -1.101999998092651 L -44.49300003051758 -0.9060000181198117 L -44.689998626708984 -0.7200000286102293 L -44.893001556396484 -0.546000003814697 L -45.055999755859375 -0.4187047481536863 L -45.10300064086914 -0.38199999928474404 L -45.31999969482422 -0.23000000417232497 L -45.547000885009766 -0.08799999952316272 L -45.6973876953125 1.1102230246251565e-16 L -45.7760009765625 0.04600000008940707 L -46.005001068115234 0.17000000178813943 L -46.236000061035156 0.2860000133514405 L -46.46699905395508 0.3919999897480011 L -46.70000076293945 0.49000000953674316 L -44.60496520996094 4.09600019454956 L -43.415103912353516 6.14400005340576 L -43.400001525878906 6.1700000762939435 L -43.28099822998047 6.366000175476072 L -43.16400146484375 6.552000045776365 L -43.04999923706055 6.7300000190734846 L -43.007999420166016 6.793375015258787 L -42.9379997253418 6.899000167846678 L -42.827999114990234 7.059000015258787 L -42.720001220703125 7.210000038146971 L -42.606998443603516 7.346000194549559 L -42.49599838256836 7.473999977111815 L -42.3849983215332 7.594999790191649 L -42.2760009765625 7.708000183105467 L -42.16699981689453 7.813000202178953 L -42.060001373291016 7.909999847412108 L -41.94599914550781 7.999000072479246 L -41.83100128173828 8.07900047302246 L -41.71500015258789 8.149999618530272 L -41.6357421875 8.19200038909912 L -41.597999572753906 8.211999893188475 L -41.479000091552734 8.265999794006346 L -41.36000061035156 8.310000419616697 L -41.244998931884766 8.34700012207031 L -41.12699890136719 8.376999855041502 L -41.005001068115234 8.399999618530272 L -40.959999084472656 8.406120300292967 L -40.880001068115234 8.41699981689453 L -40.75199890136719 8.427000045776365 L -40.619998931884766 8.43000030517578 L -40.52000045776367 8.43000030517578 L -40.52000045776367 9.909999847412108 L -40.959999084472656 9.909999847412108 L -41.41999816894531 9.909999847412108 L -41.82500076293945 9.907999992370604 L -42.2130012512207 9.901000022888182 L -42.584999084472656 9.890000343322752 L -42.939998626708984 9.873999595642088 L -43.007999420166016 9.86997604370117 L -43.27799987792969 9.854000091552733 L -43.599998474121094 9.829999923706053 L -43.9010009765625 9.79199981689453 L -44.18899917602539 9.743000030517576 L -44.46500015258789 9.685000419616697 L -44.729000091552734 9.616999626159666 L -44.98099899291992 9.538000106811522 L -45.055999755859375 9.510384559631346 L -45.220001220703125 9.449999809265135 L -45.448001861572266 9.350999832153319 L -45.66400146484375 9.241000175476072 L -45.869998931884766 9.11999988555908 L -46.06399917602539 8.987999916076658 L -46.24800109863281 8.843999862670897 L -46.41999816894531 8.689999580383299 L -46.590999603271484 8.515999794006346 L -46.757999420166016 8.328000068664549 L -46.86653137207031 8.19200038909912 L -46.91999816894531 8.124999999999998 L -47.077999114990234 7.907999992370604 L -47.23099899291992 7.6760001182556135 L -47.380001068115234 7.429999828338621 L -49.152000427246094 4.12370729446411 L -49.16685104370117 4.09600019454956 L -50.65999984741211 1.309999942779541 L -52.5 1.309999942779541 L -52.5 4.09600019454956 L -52.5 6.789999961853026 L -52.49700164794922 6.964000225067137 L -52.48899841308594 7.127999782562254 L -52.474998474121094 7.280000209808348 L -52.45600128173828 7.4210000038146955 L -52.430999755859375 7.5510001182556135 L -52.400001525878906 7.6700000762939435 L -52.358001708984375 7.772999763488768 L -52.31100082397461 7.868000030517576 L -52.2599983215332 7.954999923706053 L -52.20399856567383 8.034000396728514 L -52.14400100708008 8.105999946594237 L -52.08000183105469 8.170000076293944 L -52.05066680908203 8.19200038909912 L -52.012001037597656 8.2209997177124 L -51.939998626708984 8.265999794006346 L -51.8650016784668 8.30500030517578 L -51.7869987487793 8.338999748229979 L -51.70500183105469 8.366999626159666 L -51.619998931884766 8.390000343322752 L -51.53300094604492 8.402000427246092 L -51.444000244140625 8.411999702453612 L -51.35499954223633 8.420000076293944 L -51.263999938964844 8.425999641418455 L -51.17300033569336 8.42899990081787 L -51.08000183105469 8.43000030517578 L -49.880001068115234 8.43000030517578 L -49.880001068115234 9.909999847412108 L -57.34400177001953 9.909999847412108 L -59.47999954223633 9.909999847412108 L -59.47999954223633 9.789999961853026 L -59.47999954223633 9.528499603271483 L -59.47999954223633 9.316399574279783 L -59.47999954223633 9.152820587158201 L -59.47999954223633 8.976511955261229 L -59.47999954223633 8.850000381469725 L -59.47999954223633 8.624483108520506 L -59.47999954223633 8.58323574066162 L -59.47999954223633 8.548988342285154 L -59.47999954223633 8.514615058898924 L -59.47999954223633 8.47030735015869 L -59.47999954223633 8.442473411560057 L -59.47999954223633 8.43000030517578 L -58.31999969482422 8.43000030517578 L -58.22700119018555 8.42899990081787 L -58.13600158691406 8.425999641418455 L -58.04499816894531 8.420000076293944 L -57.95600128173828 8.411999702453612 L -57.867000579833984 8.402000427246092 L -57.779998779296875 8.390000343322752 L -57.69499969482422 8.366999626159666 L -57.612998962402344 8.338999748229979 L -57.53499984741211 8.30500030517578 L -57.459999084472656 8.265999794006346 L -57.38800048828125 8.2209997177124 L -57.34400177001953 8.187999725341795 L -57.31999969482422 8.170000076293944 L -57.25600051879883 8.105999946594237 L -57.19599914550781 8.034000396728514 L -57.13999938964844 7.954999923706053 L -57.0890007019043 7.868000030517576 L -57.04199981689453 7.772999763488768 L -57 7.6700000762939435 L -56.9630012512207 7.5510001182556135 L -56.93299865722656 7.4210000038146955 L -56.90999984741211 7.280000209808348 L -56.893001556396484 7.127999782562254 L -56.882999420166016 6.964000225067137 L -56.880001068115234 6.789999961853026 L -56.880001068115234 4.09600019454956 L -56.880001068115234 1.1102230246251565e-16 L -56.880001068115234 -0.1792744547128676 L -56.880001068115234 -0.3100000023841856 L -56.880001068115234 -4.09600019454956 L -56.880001068115234 -6.749999999999998 L -56.882999420166016 -6.923999786376951 L -56.893001556396484 -7.087999820709227 L -56.90999984741211 -7.239999771118162 L -56.93299865722656 -7.381000041961668 L -56.9630012512207 -7.511000156402586 L -57 -7.630000114440916 L -57.04199981689453 -7.737999916076658 L -57.0890007019043 -7.836999893188475 L -57.13999938964844 -7.9250001907348615 L -57.19599914550781 -8.003000259399412 L -57.25600051879883 -8.07199954986572 L -57.31999969482422 -8.130000114440916 L -57.34400177001953 -8.150117874145506 L -57.38800048828125 -8.187000274658201 L -57.459999084472656 -8.237000465393065 L -57.53499984741211 -8.27999973297119 L -57.612998962402344 -8.31700038909912 L -57.69499969482422 -8.34700012207031 L -57.779998779296875 -8.36999988555908 L -57.867000579833984 -8.387999534606932 L -57.95600128173828 -8.402999877929686 L -58.04499816894531 -8.414999961853026 L -58.13600158691406 -8.423000335693358 L -58.22700119018555 -8.428000450134276 L -58.31999969482422 -8.43000030517578 L -59.47999954223633 -8.43000030517578 L -59.47999954223633 -9.909999847412108 L -57.34400177001953 -9.909999847412108 L -50.540000915527344 -9.909999847412108 L -49.28499984741211 -9.873000144958494 L -49.152000427246094 -9.860143661499022 L -48.14699935913086 -9.762999534606932 L -47.125 -9.579999923706053 L -46.220001220703125 -9.322999954223631 L -45.43199920654297 -8.993000030517576 L -44.7599983215332 -8.590000152587889 M -62.45000076293945 -8.229999542236326 L -62.42704772949219 -8.19200038909912 L -62.327999114990234 -8.027999877929686 L -62.22800064086914 -7.821000099182127 L -62.150001525878906 -7.6100001335144025 L -62.09400177001953 -7.39400005340576 L -62.06100082397461 -7.173999786376951 L -62.04999923706055 -6.949999809265135 L -62.055999755859375 -6.778999805450438 L -62.07400131225586 -6.611999988555906 L -62.10499954223633 -6.449999809265135 L -62.14799880981445 -6.2919998168945295 L -62.201202392578125 -6.14400005340576 L -62.202999114990234 -6.138999938964842 L -62.27000045776367 -5.989999771118163 L -62.3489990234375 -5.847000122070312 L -62.441001892089844 -5.710000038146972 L -62.54499816894531 -5.579999923706054 L -62.6609992980957 -5.456999778747558 L -62.78900146484375 -5.34000015258789 L -62.93000030517578 -5.230000019073485 L -63.08300018310547 -5.126999855041503 L -63.24800109863281 -5.032000064849853 L -63.42499923706055 -4.945000171661376 L -63.487998962402344 -4.9186668395996085 L -63.61399841308594 -4.866000175476073 L -63.816001892089844 -4.7940001487731925 L -64.02999877929688 -4.730000019073485 L -64.2490005493164 -4.6690001487731925 L -64.47899627685547 -4.618999958038329 L -64.72000122070312 -4.579999923706054 L -64.97200012207031 -4.552000045776366 L -65.23600006103516 -4.53599977493286 L -65.4838638305664 -4.5305724143981925 L -65.49989318847656 -4.530221462249755 L -65.51000213623047 -4.530000209808349 L -65.51399993896484 -4.763000011444091 L -65.52799987792969 -4.993999958038329 L -65.53600311279297 -5.07800006866455 L -65.55000305175781 -5.2249999046325675 L -65.58100128173828 -5.453999996185302 L -65.62100219726562 -5.683000087738036 L -65.66999816894531 -5.9099998474121085 L -65.7229995727539 -6.132999897003172 L -65.7262954711914 -6.14400005340576 L -65.78800201416016 -6.349999904632567 L -65.86499786376953 -6.559999942779539 L -65.9540023803711 -6.76300001144409 L -66.05599975585938 -6.960000038146971 L -66.16999816894531 -7.15000009536743 L -66.2969970703125 -7.330999851226805 L -66.43699645996094 -7.499000072479246 L -66.58999633789062 -7.655000209808348 L -66.75700378417969 -7.798999786376951 L -66.93699645996094 -7.931000232696531 L -67.12999725341797 -8.050000190734862 L -67.33100128173828 -8.159999847412108 L -67.40815734863281 -8.19200038909912 L -67.5479965209961 -8.249999999999998 L -67.58399963378906 -8.260862350463865 L -67.77999877929688 -8.319999694824217 L -68.02799987792969 -8.36999988555908 L -68.29100036621094 -8.399999618530272 L -68.56999969482422 -8.409999847412108 L -68.9990005493164 -8.39400005340576 L -69.40599822998047 -8.347999572753904 L -69.63200378417969 -8.302093505859373 L -69.79000091552734 -8.27000045776367 L -70.0490493774414 -8.19200038909912 L -70.1520004272461 -8.161000251770018 L -70.49199676513672 -8.020999908447264 L -70.80999755859375 -7.849999904632567 L -71.10099792480469 -7.649000167846678 L -71.37200164794922 -7.419000148773192 L -71.625 -7.159999847412108 L -71.85900115966797 -6.872000217437742 L -72.0739974975586 -6.556000232696531 L -72.2699966430664 -6.210000038146971 L -72.44200134277344 -5.842999935150146 L -72.59700012207031 -5.447999954223632 L -72.73500061035156 -5.025000095367431 L -72.85700225830078 -4.573999881744384 L -72.96199798583984 -4.09600019454956 L -73.05000305175781 -3.5899999141693106 L -73.12300109863281 -3.0520000457763663 L -73.18299865722656 -2.4900000095367427 L -73.2300033569336 -1.90499997138977 L -73.26300048828125 -1.2970000505447383 L -73.28299713134766 -0.6650000214576719 L -73.29000091552734 -0.00999999977648247 L -73.28987884521484 1.1102230246251565e-16 L -73.28199768066406 0.6430000066757202 L -73.25900268554688 1.2680000066757202 L -73.22000122070312 1.8650000095367427 L -73.16600036621094 2.4340000152587886 L -73.09600067138672 2.976000070571899 L -73.01000213623047 3.4900000095367423 L -72.89900207519531 3.9760000705718985 L -72.86467742919922 4.09600019454956 L -72.76799774169922 4.434000015258788 L -72.61499786376953 4.864999771118163 L -72.44100189208984 5.268000125885009 L -72.24600219726562 5.643000125885009 L -72.02999877929688 5.989999771118163 L -71.79900360107422 6.309000015258787 L -71.5459976196289 6.6009998321533185 L -71.2699966430664 6.864999771118162 L -70.97200012207031 7.1009998321533185 L -70.6520004272461 7.309000015258787 L -70.30999755859375 7.489999771118162 L -69.94300079345703 7.637000083923338 L -69.63200378417969 7.7314810752868635 L -69.5479965209961 7.75699996948242 L -69.125 7.849999904632567 L -68.67400360107422 7.9169998168945295 L -68.19599914550781 7.956999778747557 L -67.69000244140625 7.969999790191649 L -67.35700225830078 7.964000225067137 L -67.03700256347656 7.946000099182127 L -66.7300033569336 7.914999961853026 L -66.43699645996094 7.872000217437742 L -66.15699768066406 7.816999912261961 L -65.88999938964844 7.749999999999998 L -65.62799835205078 7.6659998893737775 L -65.53600311279297 7.632278919219969 L -65.37699890136719 7.573999881744383 L -65.13500213623047 7.474999904632567 L -64.90299987792969 7.368000030517576 L -64.68199920654297 7.252999782562254 L -64.47000122070312 7.130000114440916 L -64.26699829101562 7.00099992752075 L -64.0719985961914 6.866000175476072 L -63.8849983215332 6.724999904632567 L -63.70600128173828 6.578999996185301 L -63.534000396728516 6.427000045776365 L -63.487998962402344 6.38296318054199 L -63.369998931884766 6.269999980926512 L -63.25033950805664 6.14400005340576 L -63.21900177001953 6.1110000610351545 L -63.07400131225586 5.952000141143798 L -62.935001373291016 5.795000076293944 L -62.80099868774414 5.638999938964843 L -62.67300033569336 5.4840002059936515 L -62.54999923706055 5.329999923706054 L -62.479000091552734 5.394000053405761 L -62.4640007019043 5.411077022552489 L -62.41400146484375 5.467999935150146 L -62.35499954223633 5.550000190734862 L -62.30099868774414 5.640999794006347 L -62.255332946777344 5.736135959625243 L -62.25299835205078 5.741000175476073 L -62.209999084472656 5.8499999046325675 L -62.16699981689453 5.958000183105468 L -62.13199996948242 6.067999839782713 L -62.113677978515625 6.14400005340576 L -62.10499954223633 6.179999828338621 L -62.08599853515625 6.294000148773192 L -62.07400131225586 6.4109997749328596 L -62.06999969482422 6.530000209808348 L -62.07899856567383 6.7259998321533185 L -62.10599899291992 6.9260001182556135 L -62.150001525878906 7.130000114440916 L -62.21200180053711 7.339000225067137 L -62.29199981689453 7.552000045776365 L -62.38999938964844 7.769999980926512 L -62.507999420166016 7.9809999465942365 L -62.64799880981445 8.185999870300291 L -62.65288543701172 8.19200038909912 L -62.810001373291016 8.385000228881834 L -62.99399948120117 8.57900047302246 L -63.20100021362305 8.767000198364256 L -63.43000030517578 8.949999809265135 L -63.68899917602539 9.124999999999998 L -63.9739990234375 9.289999961853026 L -64.28500366210938 9.444999694824217 L -64.62100219726562 9.590000152587889 L -64.98300170898438 9.725000381469725 L -65.37000274658203 9.850000381469725 L -65.53600311279297 9.890910148620604 L -65.79199981689453 9.95400047302246 L -66.24299621582031 10.038999557495115 L -66.7249984741211 10.104999542236326 L -67.23699951171875 10.152000427246092 L -67.77799987792969 10.180999755859373 L -68.3499984741211 10.189999580383299 L -69.13899993896484 10.170000076293944 L -69.89399719238281 10.109999656677244 L -70.61499786376953 10.010000228881834 L -71.3010025024414 9.86999988555908 L -71.9530029296875 9.689999580383299 L -72.56999969482422 9.470000267028807 L -73.15299987792969 9.206999778747557 L -73.7030029296875 8.909999847412108 L -73.72799682617188 8.894042968749998 L -74.22000122070312 8.579999923706053 L -74.7030029296875 8.217000007629393 L -75.15299987792969 7.820000171661375 L -75.56999969482422 7.389999866485594 L -75.9530029296875 6.927999973297117 L -76.3030014038086 6.436999797821043 L -76.62000274658203 5.9149999618530265 L -76.90299987792969 5.362999916076659 L -77.15299987792969 4.782000064849853 L -77.37000274658203 4.170000076293944 L -77.5469970703125 3.5320000648498526 L -77.69200134277344 2.8699998855590816 L -77.80500030517578 2.1849999427795406 L -77.88600158691406 1.4769999980926514 L -77.93399810791016 0.7450000047683716 L -77.94979095458984 1.1102230246251565e-16 L -77.94999694824219 -0.00999999977648247 L -77.93299865722656 -0.7519999742507931 L -77.88300323486328 -1.4720000028610225 L -77.80000305175781 -2.170000076293945 L -77.68299865722656 -2.845999956130981 L -77.53299713134766 -3.499000072479247 L -77.3499984741211 -4.130000114440917 L -77.12699890136719 -4.742000102996825 L -76.87200164794922 -5.322999954223632 L -76.58499908447266 -5.874999999999999 L -76.26599884033203 -6.396999835968016 L -75.91400146484375 -6.88800001144409 L -75.52999877929688 -7.349999904632567 L -75.11399841308594 -7.780000209808348 L -74.66600036621094 -8.177000045776365 L -74.64612579345703 -8.19200038909912 L -74.18499755859375 -8.539999961853026 L -73.72799682617188 -8.833976745605467 L -73.6719970703125 -8.86999988555908 L -73.12699890136719 -9.16699981689453 L -72.55000305175781 -9.43000030517578 L -71.93399810791016 -9.661999702453612 L -71.28800201416016 -9.852000236511229 L -70.61000061035156 -9.999999999999998 L -69.9010009765625 -10.105999946594237 L -69.63200378417969 -10.128901481628416 L -69.16100311279297 -10.168999671936033 L -68.38999938964844 -10.189999580383299 L -67.86799621582031 -10.182999610900877 L -67.58399963378906 -10.170503616333006 L -67.36799621582031 -10.161000251770018 L -66.88999938964844 -10.124999999999998 L -66.43399810791016 -10.074000358581541 L -66.0009994506836 -10.008999824523924 L -65.58999633789062 -9.93000030517578 L -65.53600311279297 -9.917136192321776 L -65.20800018310547 -9.838999748229979 L -64.8479995727539 -9.739000320434569 L -64.51000213623047 -9.630000114440916 L -64.19400024414062 -9.512000083923338 L -63.9010009765625 -9.385999679565428 L -63.630001068115234 -9.249999999999998 L -63.375 -9.098999977111815 L -63.143001556396484 -8.94099998474121 L -62.935001373291016 -8.774999618530272 L -62.75 -8.600999832153319 L -62.5880012512207 -8.418999671936033 L -62.45000076293945 -8.229999542236326 M -84.12000274658203 -8.21000003814697 L -84.10990142822266 -8.19200038909912 L -84.01000213623047 -8.013999938964842 L -83.91999816894531 -7.811999797821043 L -83.8499984741211 -7.6050000190734846 L -83.80000305175781 -7.392000198364256 L -83.7699966430664 -7.173999786376951 L -83.76000213623047 -6.949999809265135 L -83.76599884033203 -6.7919998168945295 L -83.78199768066406 -6.637000083923338 L -83.80999755859375 -6.4850001335144025 L -83.8489990234375 -6.336999893188475 L -83.89900207519531 -6.191999912261961 L -83.91961669921875 -6.14400005340576 L -83.95999908447266 -6.0500001907348615 L -83.96800231933594 -6.036126613616942 L -84.03900146484375 -5.9130001068115225 L -84.12899780273438 -5.781000137329101 L -84.2300033569336 -5.655000209808349 L -84.34200286865234 -5.5339999198913565 L -84.46600341796875 -5.4190001487731925 L -84.5999984741211 -5.30999994277954 L -84.75199890136719 -5.208000183105468 L -84.91600036621094 -5.113999843597411 L -85.08999633789062 -5.030000209808349 L -85.2760009765625 -4.953999996185302 L -85.47200012207031 -4.888000011444091 L -85.68000030517578 -4.829999923706054 L -85.89900207519531 -4.775000095367431 L -86.01599884033203 -4.752305984497069 L -86.13099670410156 -4.730000019073485 L -86.375 -4.695000171661376 L -86.63099670410156 -4.670000076293944 L -86.89900207519531 -4.655000209808349 L -86.93599700927734 -4.65434169769287 L -87.01966857910156 -4.65285301208496 L -87.06175994873047 -4.652103900909423 L -87.0993423461914 -4.651435375213622 L -87.13113403320312 -4.650869369506835 L -87.15534210205078 -4.650438785552978 L -87.17029571533203 -4.6501727104187 L -87.18000030517578 -4.650000095367431 L -87.18399810791016 -4.84600019454956 L -87.197998046875 -5.046000003814696 L -87.22000122070312 -5.249999999999999 L -87.2509994506836 -5.45900011062622 L -87.29100036621094 -5.671999931335448 L -87.33999633789062 -5.889999866485595 L -87.39800262451172 -6.11399984359741 L -87.4074935913086 -6.14400005340576 L -87.46700286865234 -6.331999778747557 L -87.54499816894531 -6.5450000762939435 L -87.63300323486328 -6.751999855041502 L -87.73200225830078 -6.953999996185301 L -87.83999633789062 -7.15000009536743 L -87.96600341796875 -7.337999820709227 L -88.10199737548828 -7.513999938964842 L -88.25 -7.679999828338621 L -88.40899658203125 -7.834000110626219 L -88.5790023803711 -7.978000164031981 L -88.76000213623047 -8.109999656677244 L -88.89643096923828 -8.19200038909912 L -88.9530029296875 -8.225999832153319 L -89.16000366210938 -8.321000099182127 L -89.37999725341797 -8.39500045776367 L -89.61299896240234 -8.447999954223631 L -89.86000061035156 -8.479000091552733 L -90.11199951171875 -8.489661216735838 L -90.12000274658203 -8.489999771118162 L -90.30500030517578 -8.484999656677244 L -90.48699951171875 -8.470000267028807 L -90.66500091552734 -8.444999694824217 L -90.83999633789062 -8.409999847412108 L -91.01200103759766 -8.364999771118162 L -91.18000030517578 -8.310000419616697 L -91.34300231933594 -8.251999855041502 L -91.48572540283203 -8.19200038909912 L -91.5 -8.185999870300291 L -91.6500015258789 -8.109999656677244 L -91.79299926757812 -8.026000022888182 L -91.93000030517578 -7.932000160217283 L -92.05999755859375 -7.829999923706053 L -92.16000366210938 -7.739016532897947 L -92.18199920654297 -7.718999862670897 L -92.2959976196289 -7.598999977111815 L -92.4000015258789 -7.469999790191649 L -92.49600219726562 -7.331999778747557 L -92.58200073242188 -7.185999870300291 L -92.66000366210938 -7.030000209808348 L -92.72100067138672 -6.866000175476072 L -92.77100372314453 -6.691999912261961 L -92.80999755859375 -6.510000228881834 L -92.83799743652344 -6.318999767303465 L -92.85199737548828 -6.14400005340576 L -92.85399627685547 -6.118999958038328 L -92.86000061035156 -5.9099998474121085 L -92.8550033569336 -5.7189998626708975 L -92.83999633789062 -5.532000064849853 L -92.81500244140625 -5.3499999046325675 L -92.77999877929688 -5.171999931335448 L -92.73500061035156 -4.999000072479247 L -92.68000030517578 -4.829999923706054 L -92.6050033569336 -4.657000064849853 L -92.51300048828125 -4.486000061035155 L -92.40499877929688 -4.315000057220458 L -92.27999877929688 -4.145999908447265 L -92.23799133300781 -4.09600019454956 L -92.13800048828125 -3.9769999980926505 L -91.9800033569336 -3.80999994277954 L -91.802001953125 -3.644000053405761 L -91.60199737548828 -3.4790000915527335 L -91.37999725341797 -3.315000057220458 L -91.13600158691406 -3.1519999504089347 L -90.86900329589844 -2.9909999370574947 L -90.58000183105469 -2.8299999237060542 L -90.27200317382812 -2.66100001335144 L -90.11199951171875 -2.5793480873107906 L -90.01237487792969 -2.5285077095031734 L -89.93299865722656 -2.4879999160766597 L -89.56500244140625 -2.3099999427795406 L -89.16699981689453 -2.1280000209808345 L -88.82060241699219 -1.9770069122314449 L -88.73799896240234 -1.9409999847412105 L -88.27999877929688 -1.7499999999999996 L -87.81800079345703 -1.5559999942779537 L -87.37799835205078 -1.3609999418258663 L -86.95999908447266 -1.164999961853027 L -86.56400299072266 -0.9679999947547909 L -86.19100189208984 -0.7689999938011166 L -85.83999633789062 -0.5699999928474424 L -85.51699829101562 -0.3610000014305113 L -85.21299743652344 -0.1480000019073485 L -85.0208740234375 1.1102230246251565e-16 L -84.93000030517578 0.07000000029802332 L -84.66699981689453 0.29199999570846563 L -84.4229965209961 0.5189999938011169 L -84.19999694824219 0.7499999999999999 L -83.99600219726562 0.9869999885559081 L -83.81099700927734 1.2300000190734863 L -83.6449966430664 1.4800000190734863 L -83.49800109863281 1.7369999885559078 L -83.36900329589844 1.9999999999999996 L -83.34962463378906 2.04800009727478 L -83.26000213623047 2.2699999809265132 L -83.16799926757812 2.5550000667572017 L -83.09300231933594 2.849999904632568 L -83.03500366210938 3.1549999713897696 L -82.99299621582031 3.4700000286102286 L -82.96800231933594 3.7950000762939444 L -82.9608154296875 4.09600019454956 L -82.95999908447266 4.130000114440917 L -82.9749984741211 4.571000099182128 L -83.0199966430664 4.999000072479247 L -83.09500122070312 5.4149999618530265 L -83.19999694824219 5.818999767303466 L -83.33499908447266 6.210999965667723 L -83.5 6.590000152587889 L -83.68699645996094 6.953999996185301 L -83.9000015258789 7.3010001182556135 L -84.13999938964844 7.630000114440916 L -84.40699768066406 7.940999984741209 L -84.65799713134766 8.19200038909912 L -84.69999694824219 8.23400020599365 L -85.0199966430664 8.510000228881834 L -85.36399841308594 8.767000198364256 L -85.72899627685547 9.003000259399412 L -86.01599884033203 9.164344787597654 L -86.11499786376953 9.220000267028807 L -86.52200317382812 9.41699981689453 L -86.95099639892578 9.593000411987303 L -87.4000015258789 9.749999999999998 L -87.8759994506836 9.883999824523924 L -88.06400299072266 9.925777435302733 L -88.37100219726562 9.994000434875487 L -88.88500213623047 10.079999923706053 L -89.41799926757812 10.140999794006346 L -89.96900177001953 10.178000450134276 L -90.11199951171875 10.181005477905272 L -90.54000091552734 10.189999580383299 L -91.14299774169922 10.180999755859373 L -91.71299743652344 10.152000427246092 L -92.16000366210938 10.112876892089842 L -92.25 10.104999542236326 L -92.75299835205078 10.038999557495115 L -93.2229995727539 9.95400047302246 L -93.66000366210938 9.850000381469725 L -94.05999755859375 9.723999977111815 L -94.20800018310547 9.670037269592283 L -94.43299865722656 9.588000297546385 L -94.77999877929688 9.439999580383299 L -95.0999984741211 9.2810001373291 L -95.39299774169922 9.111000061035154 L -95.66000366210938 8.93000030517578 L -95.9010009765625 8.74600028991699 L -96.11799621582031 8.552000045776365 L -96.30999755859375 8.350000381469725 L -96.43579864501953 8.19200038909912 L -96.47799682617188 8.138999938964842 L -96.62100219726562 7.919000148773192 L -96.73999786376953 7.690000057220457 L -96.83200073242188 7.458000183105467 L -96.90699768066406 7.228000164031981 L -96.96499633789062 6.999999999999998 L -97.00700378417969 6.774000167846678 L -97.03199768066406 6.5510001182556135 L -97.04000091552734 6.329999923706053 L -97.03443908691406 6.14400005340576 L -97.03299713134766 6.096000194549559 L -97.01100158691406 5.874000072479247 L -96.9749984741211 5.6649999618530265 L -96.92400360107422 5.467999935150146 L -96.85900115966797 5.282999992370605 L -96.77999877929688 5.110000133514403 L -96.68800354003906 4.953999996185302 L -96.58699798583984 4.808000087738036 L -96.4749984741211 4.670000076293944 L -96.35299682617188 4.540999889373778 L -96.22200012207031 4.421000003814696 L -96.08000183105469 4.30999994277954 L -95.93000030517578 4.214000225067138 L -95.77300262451172 4.127999782562255 L -95.70613098144531 4.09600019454956 L -95.61000061035156 4.050000190734862 L -95.44000244140625 3.9809999465942374 L -95.26300048828125 3.9210000038146964 L -95.08000183105469 3.869999885559081 L -94.89199829101562 3.826999902725219 L -94.69999694824219 3.7920000553131095 L -94.50499725341797 3.765000104904174 L -94.30699920654297 3.746000051498412 L -94.20800018310547 3.740118741989135 L -94.1050033569336 3.7339999675750724 L -93.9000015258789 3.7300000190734854 L -93.89253234863281 4.09600019454956 L -93.89199829101562 4.122000217437743 L -93.86900329589844 4.497000217437743 L -93.83000183105469 4.855000019073485 L -93.7760009765625 5.19700002670288 L -93.70600128173828 5.521999835968017 L -93.62000274658203 5.829999923706054 L -93.51399993896484 6.122000217437742 L -93.50472259521484 6.14400005340576 L -93.39800262451172 6.396999835968016 L -93.2699966430664 6.655000209808348 L -93.13099670410156 6.896999835968016 L -92.98100280761719 7.122000217437742 L -92.81999969482422 7.329999923706053 L -92.64800262451172 7.521999835968016 L -92.46399688720703 7.697000026702879 L -92.2699966430664 7.8550000190734846 L -92.06400299072266 7.997000217437742 L -91.8479995727539 8.121999740600584 L -91.70022583007812 8.19200038909912 L -91.62000274658203 8.229999542236326 L -91.38300323486328 8.32199954986572 L -91.13999938964844 8.397000312805174 L -90.88999938964844 8.454999923706053 L -90.63300323486328 8.496999740600584 L -90.37000274658203 8.522000312805174 L -90.11199951171875 8.52964401245117 L -90.0999984741211 8.52999973297119 L -89.83200073242188 8.524000167846678 L -89.572998046875 8.50599956512451 L -89.32499694824219 8.475000381469725 L -89.08699798583984 8.432000160217283 L -88.85800170898438 8.376999855041502 L -88.63999938964844 8.310000419616697 L -88.43199920654297 8.225999832153319 L -88.3611068725586 8.19200038909912 L -88.23600006103516 8.13199996948242 L -88.06400299072266 8.037677764892576 L -88.05000305175781 8.02999973297119 L -87.8759994506836 7.919000148773192 L -87.71199798583984 7.798999786376951 L -87.55999755859375 7.6700000762939435 L -87.41899871826172 7.532000064849852 L -87.28900146484375 7.386000156402586 L -87.16999816894531 7.2300000190734846 L -87.06199645996094 7.065999984741209 L -86.96600341796875 6.892000198364256 L -86.87999725341797 6.710000038146971 L -86.80699920654297 6.526999950408934 L -86.74700164794922 6.339000225067137 L -86.69999694824219 6.144999980926512 L -86.69983673095703 6.14400005340576 L -86.66699981689453 5.946000099182128 L -86.64700317382812 5.741000175476073 L -86.63999938964844 5.530000209808349 L -86.64800262451172 5.301000118255614 L -86.6729965209961 5.078999996185302 L -86.71499633789062 4.864999771118163 L -86.77300262451172 4.6589999198913565 L -86.8479995727539 4.460999965667724 L -86.94000244140625 4.269999980926513 L -87.03971099853516 4.09600019454956 L -87.04199981689453 4.092000007629394 L -87.16000366210938 3.9189999103546134 L -87.29499816894531 3.749999999999999 L -87.4469985961914 3.5859999656677237 L -87.61499786376953 3.4260001182556143 L -87.80000305175781 3.269999980926513 L -88.0009994506836 3.1119999885559073 L -88.21800231933594 2.9570000171661373 L -88.44999694824219 2.8050000667572017 L -88.697998046875 2.657000064849853 L -88.96099853515625 2.5120000839233394 L -89.23999786376953 2.3699998855590816 L -89.54199981689453 2.221999883651733 L -89.86000061035156 2.0720000267028804 L -90.11199951171875 1.9576597213745113 L -90.19499969482422 1.9199999570846553 L -90.5469970703125 1.7660000324249263 L -90.91500091552734 1.6089999675750728 L -91.30000305175781 1.4500000476837158 L -91.76799774169922 1.2489999532699585 L -92.21099853515625 1.0479999780654907 L -92.62999725341797 0.8450000286102294 L -93.02400207519531 0.640999972820282 L -93.39399719238281 0.4359999895095825 L -93.73999786376953 0.2300000041723252 L -94.06199645996094 0.014000000432133782 L -94.08109283447266 1.1102230246251565e-16 L -94.20800018310547 -0.093066670000553 L -94.36199951171875 -0.2060000002384184 L -94.63999938964844 -0.43000000715255715 L -94.89600372314453 -0.658999979496002 L -95.12899780273438 -0.8920000195503232 L -95.33999633789062 -1.129999995231628 L -95.53700256347656 -1.379999995231628 L -95.71299743652344 -1.6369999647140498 L -95.87000274658203 -1.8999999761581416 L -95.94509887695312 -2.04800009727478 L -96.00700378417969 -2.170000076293945 L -96.12300109863281 -2.4470000267028804 L -96.22000122070312 -2.730000019073486 L -96.29900360107422 -3.015000104904174 L -96.36399841308594 -3.30999994277954 L -96.41500091552734 -3.6150000095367423 L -96.45099639892578 -3.9300000667572013 L -96.46223449707031 -4.09600019454956 L -96.4729995727539 -4.255000114440917 L -96.4800033569336 -4.59000015258789 L -96.46600341796875 -5.008999824523925 L -96.42400360107422 -5.4140000343322745 L -96.3550033569336 -5.804999828338622 L -96.25800323486328 -6.181000232696531 L -96.13300323486328 -6.54300022125244 L -95.9800033569336 -6.889999866485594 L -95.7959976196289 -7.228000164031981 L -95.58899688720703 -7.5500001907348615 L -95.36000061035156 -7.8550000190734846 L -95.10900115966797 -8.14299964904785 L -95.05982208251953 -8.19200038909912 L -94.83599853515625 -8.414999961853026 L -94.54000091552734 -8.670000076293944 L -94.23100280761719 -8.901000022888182 L -94.20800018310547 -8.915890693664549 L -93.9020004272461 -9.114000320434569 L -93.55500030517578 -9.310000419616697 L -93.18900299072266 -9.487999916076658 L -92.80400085449219 -9.647999763488768 L -92.4000015258789 -9.789999961853026 L -92.16000366210938 -9.85873222351074 L -91.9739990234375 -9.911999702453612 L -91.53800201416016 -10.012000083923338 L -91.08999633789062 -10.090000152587889 L -90.63099670410156 -10.145999908447264 L -90.16100311279297 -10.17899990081787 L -90.11199951171875 -10.180120468139647 L -89.68000030517578 -10.189999580383299 L -89.1780014038086 -10.182999610900877 L -88.69999694824219 -10.161000251770018 L -88.24500274658203 -10.124999999999998 L -88.06400299072266 -10.1036319732666 L -87.81300354003906 -10.074000358581541 L -87.40499877929688 -10.008999824523924 L -87.0199966430664 -9.93000030517578 L -86.66300201416016 -9.838999748229979 L -86.3270034790039 -9.739000320434569 L -86.01599884033203 -9.632062911987303 L -86.01000213623047 -9.630000114440916 L -85.71299743652344 -9.512000083923338 L -85.43699645996094 -9.385999679565428 L -85.18000030517578 -9.249999999999998 L -84.95099639892578 -9.098999977111815 L -84.74199676513672 -8.939000129699705 L -84.55500030517578 -8.77000045776367 L -84.38899993896484 -8.592000007629393 L -84.24400329589844 -8.4060001373291 L -84.12000274658203 -8.21000003814697 M -28.079999923706055 20.30800056457519 L -27.979999542236328 20.104999542236325 L -27.89299964904785 19.888000488281246 L -27.81999969482422 19.656000137329098 L -27.760000228881836 19.409999847412106 L -27.704999923706055 19.142999649047848 L -27.65999984741211 18.863000869750973 L -27.625 18.569999694824215 L -27.600000381469727 18.263000488281246 L -27.584999084472656 17.943000793457028 L -27.579999923706055 17.61000061035156 L -27.586000442504883 17.271999359130856 L -27.601999282836914 16.95000076293945 L -27.6299991607666 16.64500045776367 L -27.66534423828125 16.38400077819824 L -27.66900062561035 16.357000350952145 L -27.7189998626709 16.084999084472653 L -27.780000686645508 15.829999923706051 L -27.847000122070312 15.59099960327148 L -27.927000045776367 15.368000030517575 L -28.020000457763672 15.159999847412106 L -28.12700080871582 14.968000411987301 L -28.246999740600586 14.791000366210934 L -28.3799991607666 14.630000114440914 L -28.520999908447266 14.482999801635739 L -28.672000885009766 14.353432655334469 L -28.676000595092773 14.350000381469723 L -28.844999313354492 14.229999542236325 L -29.02899932861328 14.123000144958493 L -29.226999282836914 14.029999732971188 L -29.440000534057617 13.949999809265133 L -29.660999298095703 13.883000373840328 L -29.898000717163086 13.828000068664547 L -30.149999618530273 13.784999847412106 L -30.417999267578125 13.753999710083004 L -30.701000213623047 13.736000061035153 L -31 13.729999542236325 L -32.5 13.729999542236325 L -32.5 16.38400077819824 L -32.5 20.479999542236325 L -32.5 21.690000534057614 L -30.959999084472656 21.690000534057614 L -30.64299964904785 21.68300056457519 L -30.3439998626709 21.66300010681152 L -30.065000534057617 21.629999160766598 L -29.804000854492188 21.583000183105465 L -29.562999725341797 21.523000717163082 L -29.34000015258789 21.45000076293945 L -29.134000778198242 21.35600090026855 L -28.941999435424805 21.247999191284176 L -28.764999389648438 21.124999999999996 L -28.672000885009766 21.046834945678707 L -28.601999282836914 20.988000869750973 L -28.45400047302246 20.83600044250488 L -28.31999969482422 20.67000007629394 L -28.19300079345703 20.49600028991699 L -28.183382034301758 20.479999542236325 L -28.079999923706055 20.30800056457519 M -47.779998779296875 -6.1700000762939435 L -47.84700012207031 -6.408999919891356 L -47.926998138427734 -6.63199996948242 L -48.02000045776367 -6.840000152587889 L -48.12699890136719 -7.032000064849852 L -48.24700164794922 -7.209000110626219 L -48.380001068115234 -7.36999988555908 L -48.520999908447266 -7.517000198364256 L -48.67599868774414 -7.65000009536743 L -48.845001220703125 -7.769999980926512 L -49.02899932861328 -7.876999855041502 L -49.152000427246094 -7.934772491455076 L -49.22700119018555 -7.969999790191649 L -49.439998626708984 -8.050000190734862 L -49.6609992980957 -8.116999626159666 L -49.89799880981445 -8.171999931335447 L -50.01520919799805 -8.19200038909912 L -50.150001525878906 -8.215000152587889 L -50.417999267578125 -8.24600028991699 L -50.70100021362305 -8.263999938964842 L -51 -8.27000045776367 L -52.5 -8.27000045776367 L -52.5 -8.19200038909912 L -52.5 -4.09600019454956 L -52.5 -0.3100000023841856 L -50.959999084472656 -0.3100000023841856 L -50.643001556396484 -0.3170000016689299 L -50.34400177001953 -0.33700001239776595 L -50.064998626708984 -0.3700000047683714 L -49.80400085449219 -0.41699999570846535 L -49.5629997253418 -0.47699999809265115 L -49.34000015258789 -0.5500000119209287 L -49.152000427246094 -0.6357864141464231 L -49.13399887084961 -0.6439999938011167 L -48.94200134277344 -0.7519999742507931 L -48.76499938964844 -0.8749999999999997 L -48.60200119018555 -1.0119999647140498 L -48.45399856567383 -1.164000034332275 L -48.31999969482422 -1.3300000429153438 L -48.19300079345703 -1.5039999485015865 L -48.08000183105469 -1.692000031471252 L -47.97999954223633 -1.8949999809265132 L -47.91865921020508 -2.04800009727478 L -47.893001556396484 -2.1119999885559078 L -47.81999969482422 -2.344000101089477 L -47.7599983215332 -2.589999914169311 L -47.70500183105469 -2.857000112533569 L -47.65999984741211 -3.137000083923339 L -47.625 -3.4300000667572013 L -47.599998474121094 -3.7369999885559073 L -47.584999084472656 -4.057000160217284 L -47.584415435791016 -4.09600019454956 L -47.58000183105469 -4.389999866485595 L -47.58599853515625 -4.7280001640319815 L -47.60200119018555 -5.050000190734862 L -47.630001068115234 -5.355000019073485 L -47.66899871826172 -5.643000125885009 L -47.71900177001953 -5.9149999618530265 L -47.773780822753906 -6.14400005340576 L -47.779998779296875 -6.1700000762939435 z" fill="none" stroke="rgb(255,0,0)" stroke-width="0.001mm" />
</svg>